<?xml version="1.0" encoding="utf-8"?>
<!-- Generator: Adobe Illustrator 26.1.0, SVG Export Plug-In . SVG Version: 6.00 Build 0)  -->
<svg version="1.1" id="Layer_1" xmlns="http://www.w3.org/2000/svg" xmlns:xlink="http://www.w3.org/1999/xlink" x="0px" y="0px"
	 viewBox="0 0 623.3 173" style="enable-background:new 0 0 623.3 173;" xml:space="preserve">
<style type="text/css">
	.st0{fill:#58595B;}
	.st1{fill:url(#SVGID_1_);}
</style>
<path class="st0" d="M264.7,63.7V108h-12.5V63.7h-17.3v-12h47.2v12H264.7z"/>
<path class="st0" d="M310.7,87h-4.5v21h-12.5V51.7H316c11.1,0,18.2,7.6,18.2,17.6c0.2,7.2-4.3,13.6-11.1,15.9l11.4,22.8h-13.8
	L310.7,87z M313.6,76.2c5.2,0,7.9-2.9,7.9-6.8c0-4-2.8-6.8-7.9-6.8h-7.4v13.6H313.6z"/>
<path class="st0" d="M347,87.7V51.7h12.5v34.9c0,6.8,3.8,10.3,9.8,10.3c6,0,9.7-3.4,9.7-10.3V51.7h12.5v35.9
	c0,14.1-9.9,21.6-22.3,21.6C356.9,109.2,347,101.8,347,87.7z"/>
<path class="st0" d="M434.8,68.7c-0.4-2.6-2.5-7.1-9.4-7.1c-4.7,0-7.7,2.9-7.7,6c0,2.7,1.7,4.7,5.6,5.4l7.5,1.4
	c10.7,2.1,16.3,8.9,16.3,16.9c0,8.8-7.4,17.8-20.8,17.8c-15.6,0-22.2-10.1-23-18l11.5-2.8c0.5,5.2,4,9.7,11.7,9.7
	c4.9,0,7.9-2.4,7.9-5.9c0-2.9-2.3-4.9-6-5.6l-7.7-1.4c-9.5-1.8-15.3-8.2-15.3-16.4c0-10.6,9.4-18.1,20.2-18.1
	c14.1,0,19.4,8.4,20.5,15L434.8,68.7z"/>
<path class="st0" d="M484.9,63.7V108h-12.4V63.7h-17.3v-12h47.2v12H484.9z"/>
<path class="st0" d="M547.5,96.5h-21.7l-4.1,11.4h-13.2l21.2-56.3h14.6l20.9,56.3h-13.6L547.5,96.5z M529.9,85.1h13.6l-6.8-19.4
	L529.9,85.1z"/>
<path class="st0" d="M588.6,87.8v20.2H576V51.7h21.2c11.4,0,19.3,7.5,19.3,18c0,10.5-7.8,18.1-19.3,18.1H588.6z M596,77
	c4.8,0,8-2.8,8-7.1s-3.2-7.2-8-7.2h-7.3V77H596z"/>
<linearGradient id="SVGID_1_" gradientUnits="userSpaceOnUse" x1="4.483" y1="84.4513" x2="194.3616" y2="84.4513">
	<stop  offset="0.1011" style="stop-color:#00B6FF"/>
	<stop  offset="0.901" style="stop-color:#00EACB"/>
</linearGradient>
<path class="st1" d="M116.5,67.3c0.8-0.1,1.7-0.2,2.5-0.2c3.8,0,7.5,1.7,9.9,4.7c2.5,3,3.5,6.9,2.7,10.7c-1,5.1-5,9.1-10.1,10.1
	c-0.8,0.1-1.7,0.2-2.5,0.2c-7.1-0.1-12.8-6-12.7-13.1C106.4,73.7,110.6,68.5,116.5,67.3 M110.7,14.2L73.8,51.4L65.1,60
	c-4.4,4.1-11.2,3.9-15.4-0.3l-4.7-4.4L33.1,68.2l3.9,4.2C48.1,83.5,66,83.8,77.5,73l45.8-45.9c4.2-4.5,11.2-4.7,15.7-0.5
	c0.1,0.1,34.4,33.3,34.4,33.3c4.2,4.4,4.1,11.3-0.2,15.6l-66,66c-1.9,2-5.1,3.6-8.2,3.8c-3.4,0-5.7-0.8-8.1-3.2L25.7,78.2
	c-4.3-4.3-4.3-11.4,0-15.7l33.9-34.2c4.2-4,10.7-4.2,15.1-0.4l4.9,4l12.7-12.5l-4.9-4.1C75.9,4.4,58,4.7,46.8,15.8L12.9,49.9
	C1.6,61.3,1.7,79.6,13,91l65.2,63.8c5.4,5.4,12.8,8.5,20.5,8.5c8.2,0,17.5-5.4,22.6-10.5l64.5-64.6c7.6-7.7,10.4-18.9,7.2-29.3
	c-1.4-4.5-3.9-8.6-7.2-11.8l-34.2-33.2C140.2,2.8,122,2.9,110.7,14.2"/>
</svg>
